<svg t="1675488442778" class="icon" viewBox="0 0 1024 1024" version="1.1" xmlns="http://www.w3.org/2000/svg" p-id="10402" width="200" height="200"><path d="M513.575385 908.996923m-47.261539 0a47.261538 47.261538 0 1 0 94.523077 0 47.261538 47.261538 0 1 0-94.523077 0Z" fill="#D7E9FF" p-id="10403"></path><path d="M434.806154 798.72c4.726154 0 9.452308 1.575385 12.603077 3.150769 1.575385 1.575385 3.150769 3.150769 3.150769 4.726154 0-4.726154 7.876923-7.876923 15.753846-7.876923s15.753846 3.150769 15.753846 7.876923c0-4.726154 7.876923-7.876923 15.753846-7.876923s15.753846 3.150769 15.753847 7.876923c0-4.726154 7.876923-7.876923 15.753846-7.876923s15.753846 3.150769 15.753846 7.876923c0-4.726154 7.876923-7.876923 15.753846-7.876923s15.753846 3.150769 15.753846 7.876923c0-4.726154 7.876923-7.876923 15.753846-7.876923s15.753846 3.150769 15.753847 7.876923l-47.261539 47.261539h-94.523077l-47.261538-47.261539c0-3.150769 7.876923-7.876923 15.753846-7.876923z" fill="#D7E9FF" p-id="10404"></path><path d="M419.052308 806.596923l47.261538 47.261539h15.753846l-53.563077-53.563077z" fill="#FFFFFF" p-id="10405"></path><path d="M608.098462 806.596923l-47.261539 47.261539h-15.753846l53.563077-53.563077z" fill="#94C1FF" p-id="10406"></path><path d="M466.313846 948.381538h94.523077v47.261539c0 7.876923-7.876923 15.753846-15.753846 15.753846h-63.015385c-7.876923 0-15.753846-7.876923-15.753846-15.753846v-47.261539z" fill="#D7E9FF" p-id="10407"></path><path d="M482.067692 995.643077v-47.261539h-15.753846v47.261539c0 7.876923 7.876923 15.753846 15.753846 15.753846h15.753846c-7.876923 0-15.753846-6.301538-15.753846-15.753846z" fill="#FFFFFF" p-id="10408"></path><path d="M545.083077 995.643077v-47.261539h15.753846v47.261539c0 7.876923-7.876923 15.753846-15.753846 15.753846h-15.753846c9.452308 0 15.753846-6.301538 15.753846-15.753846z" fill="#94C1FF" p-id="10409"></path><path d="M513.575385 885.366154c7.876923 0 15.753846 23.630769 15.753846 31.507692s-7.876923 15.753846-15.753846 15.753846-15.753846-7.876923-15.753847-15.753846 7.876923-31.507692 15.753847-31.507692z" fill="#FFFFFF" p-id="10410"></path><path d="M907.421538 349.735385c0 152.812308-174.867692 348.16-299.323076 456.861538 0-4.726154-7.876923-7.876923-15.753847-7.876923h-15.753846s220.553846-307.2 220.553846-448.984615S734.129231 78.769231 628.578462 31.507692C771.938462 61.44 907.421538 152.812308 907.421538 349.735385z" fill="#94C1FF" p-id="10411"></path><path d="M545.083077 806.596923c0-4.726154-7.876923-7.876923-15.753846-7.876923 0 0 110.276923-304.049231 110.276923-464.738462s-47.261538-283.569231-110.276923-315.076923c33.083077 1.575385 66.166154 4.726154 99.249231 11.027693 105.550769 47.261538 168.566154 176.443077 168.566153 318.227692s-220.553846 448.984615-220.553846 448.984615h15.753846c-7.876923 0-15.753846 3.150769-15.753846 7.876923 0-4.726154-7.876923-7.876923-15.753846-7.876923-7.876923 1.575385-15.753846 6.301538-15.753846 9.452308z" fill="#D7E9FF" p-id="10412"></path><path d="M387.544615 333.981538c0-160.689231 47.261538-283.569231 110.276923-315.076923h31.507693c63.015385 31.507692 110.276923 154.387692 110.276923 315.076923 0 162.264615-110.276923 464.738462-110.276923 464.738462-7.876923 0-15.753846 3.150769-15.753846 7.876923 0-4.726154-7.876923-7.876923-15.753847-7.876923 0 0-110.276923-302.473846-110.276923-464.738462z" fill="#94C1FF" p-id="10413"></path><path d="M387.544615 333.981538c0 162.264615 110.276923 464.738462 110.276923 464.738462-7.876923 0-15.753846 3.150769-15.753846 7.876923 0-4.726154-7.876923-7.876923-15.753846-7.876923s-15.753846 3.150769-15.753846 7.876923c0-1.575385-1.575385-3.150769-3.150769-4.726154h3.150769c-6.301538-9.452308-220.553846-313.501538-220.553846-452.135384 0-141.784615 63.015385-270.966154 168.566154-318.227693 33.083077-7.876923 67.741538-11.027692 99.24923-11.027692-63.015385 31.507692-110.276923 152.812308-110.276923 313.501538z" fill="#D7E9FF" p-id="10414"></path><path d="M447.409231 803.446154c-3.150769-1.575385-7.876923-3.150769-12.603077-3.150769-7.876923 0-15.753846 3.150769-15.753846 7.876923-124.455385-108.701538-299.323077-304.049231-299.323077-456.861539C119.729231 152.812308 255.212308 61.44 398.572308 31.507692c-105.550769 47.261538-168.566154 176.443077-168.566154 318.227693 0 140.209231 214.252308 442.683077 220.553846 452.135384l-3.150769 1.575385z" fill="#94C1FF" p-id="10415"></path><path d="M151.236923 349.735385c0-168.566154 97.673846-258.363077 215.827692-300.898462 9.452308-6.301538 20.48-12.603077 31.507693-17.329231-141.784615 29.932308-278.843077 121.304615-278.843077 319.803077 0 152.812308 174.867692 348.16 299.323077 456.861539 0-4.726154 6.301538-7.876923 9.452307-7.876923-133.907692-152.812308-277.267692-300.898462-277.267692-450.56z" fill="#D7E9FF" p-id="10416"></path><path d="M875.913846 349.735385c0-168.566154-97.673846-258.363077-215.827692-300.898462-9.452308-6.301538-20.48-12.603077-31.507692-17.329231 141.784615 29.932308 278.843077 121.304615 278.843076 319.803077 0 152.812308-174.867692 348.16-299.323076 456.861539 0-4.726154-6.301538-7.876923-9.452308-7.876923 133.907692-152.812308 277.267692-300.898462 277.267692-450.56z" fill="#5C9EFF" p-id="10417"></path><path d="M608.098462 814.473846c-3.150769 0-6.301538-3.150769-7.876924-6.301538-1.575385 0-4.726154-1.575385-7.876923-1.575385s-6.301538 1.575385-7.876923 1.575385c0 3.150769-3.150769 6.301538-7.876923 6.301538s-7.876923-3.150769-7.876923-7.876923c0-9.452308 9.452308-15.753846 23.630769-15.753846s23.630769 6.301538 23.63077 15.753846c0 4.726154-3.150769 7.876923-7.876923 7.876923z" fill="#116FFF" p-id="10418"></path><path d="M576.590769 814.473846c-3.150769 0-6.301538-3.150769-7.876923-6.301538-1.575385 0-4.726154-1.575385-7.876923-1.575385s-6.301538 1.575385-7.876923 1.575385c0 3.150769-3.150769 6.301538-7.876923 6.301538s-7.876923-3.150769-7.876923-7.876923c0-9.452308 9.452308-15.753846 23.630769-15.753846s23.630769 6.301538 23.630769 15.753846c0 4.726154-3.150769 7.876923-7.876923 7.876923z" fill="#116FFF" p-id="10419"></path><path d="M545.083077 814.473846c-3.150769 0-6.301538-3.150769-7.876923-6.301538-1.575385 0-4.726154-1.575385-7.876923-1.575385s-6.301538 1.575385-7.876923 1.575385c0 3.150769-3.150769 6.301538-7.876923 6.301538s-7.876923-3.150769-7.876923-7.876923c0-9.452308 9.452308-15.753846 23.630769-15.753846s23.630769 6.301538 23.630769 15.753846c0 4.726154-3.150769 7.876923-7.876923 7.876923z" fill="#116FFF" p-id="10420"></path><path d="M513.575385 814.473846c-3.150769 0-6.301538-3.150769-7.876923-6.301538-1.575385 0-4.726154-1.575385-7.876924-1.575385s-6.301538 1.575385-7.876923 1.575385c0 3.150769-3.150769 6.301538-7.876923 6.301538s-7.876923-3.150769-7.876923-7.876923c0-9.452308 9.452308-15.753846 23.630769-15.753846s23.630769 6.301538 23.63077 15.753846c0 4.726154-3.150769 7.876923-7.876923 7.876923z" fill="#116FFF" p-id="10421"></path><path d="M482.067692 814.473846c-3.150769 0-6.301538-3.150769-7.876923-6.301538-1.575385 0-4.726154-1.575385-7.876923-1.575385s-6.301538 1.575385-7.876923 1.575385c0 3.150769-3.150769 6.301538-7.876923 6.301538s-7.876923-3.150769-7.876923-7.876923c0-9.452308 9.452308-15.753846 23.630769-15.753846s23.630769 6.301538 23.630769 15.753846c0 4.726154-3.150769 7.876923-7.876923 7.876923z" fill="#116FFF" p-id="10422"></path><path d="M450.56 814.473846c-3.150769 0-6.301538-3.150769-7.876923-6.301538-1.575385-1.575385-4.726154-1.575385-7.876923-1.575385-4.726154 0-6.301538 1.575385-7.876923 1.575385 0 3.150769-3.150769 6.301538-7.876923 6.301538s-7.876923-3.150769-7.876923-7.876923c0-9.452308 9.452308-15.753846 23.630769-15.753846 6.301538 0 12.603077 1.575385 17.329231 4.726154 3.150769 3.150769 6.301538 6.301538 6.301538 11.027692 0 4.726154-3.150769 7.876923-7.876923 7.876923z m-7.876923-7.876923z" fill="#116FFF" p-id="10423"></path><path d="M466.313846 861.735385c-1.575385 0-4.726154 0-6.301538-1.575385l-47.261539-47.261538c-3.150769-3.150769-3.150769-7.876923 0-11.027693s7.876923-3.150769 11.027693 0l47.261538 47.261539c3.150769 3.150769 3.150769 7.876923 0 11.027692 0 1.575385-3.150769 1.575385-4.726154 1.575385zM560.836923 861.735385c-1.575385 0-4.726154 0-6.301538-1.575385-3.150769-3.150769-3.150769-7.876923 0-11.027692l47.261538-47.261539c3.150769-3.150769 7.876923-3.150769 11.027692 0s3.150769 7.876923 0 11.027693l-47.261538 47.261538c0 1.575385-3.150769 1.575385-4.726154 1.575385z" fill="#116FFF" p-id="10424"></path><path d="M560.836923 861.735385h-94.523077c-4.726154 0-7.876923-3.150769-7.876923-7.876923s3.150769-7.876923 7.876923-7.876924h94.523077c4.726154 0 7.876923 3.150769 7.876923 7.876924s-3.150769 7.876923-7.876923 7.876923zM560.836923 1003.52c-4.726154 0-7.876923-3.150769-7.876923-7.876923v-39.384615h-78.769231v39.384615c0 4.726154-3.150769 7.876923-7.876923 7.876923s-7.876923-3.150769-7.876923-7.876923v-47.261539c0-4.726154 3.150769-7.876923 7.876923-7.876923h94.523077c4.726154 0 7.876923 3.150769 7.876923 7.876923v47.261539c0 4.726154-3.150769 7.876923-7.876923 7.876923zM497.821538 806.596923c-3.150769 0-6.301538-1.575385-7.876923-4.726154-4.726154-12.603077-110.276923-307.2-110.276923-467.889231C379.667692 176.443077 425.353846 47.261538 494.670769 12.603077c4.726154-3.150769 11.027692 1.575385 11.027693 6.301538 0 3.150769-1.575385 6.301538-4.726154 7.876923-61.44 31.507692-105.550769 157.538462-105.55077 307.2 0 157.538462 108.701538 458.436923 110.276924 461.587693 1.575385 4.726154 0 7.876923-4.726154 9.452307-1.575385 1.575385-1.575385 1.575385-3.15077 1.575385z" fill="#116FFF" p-id="10425"></path><path d="M450.56 811.323077c-1.575385 0-4.726154-1.575385-6.301538-3.150769 0 0 0-1.575385-1.575385-1.575385-23.630769-33.083077-222.129231-319.803077-222.129231-456.861538 0-151.236923 67.741538-278.843077 173.292308-326.104616 4.726154-1.575385 7.876923 0 11.027692 4.726154 1.575385 4.726154 0 7.876923-4.726154 11.027692C300.898462 83.495385 236.307692 206.375385 236.307692 351.310769c0 132.332308 196.923077 415.901538 218.978462 447.409231 3.150769 3.150769 3.150769 7.876923 0 11.027692 0 1.575385-1.575385 1.575385-4.726154 1.575385zM608.098462 814.473846c-1.575385 0-4.726154-1.575385-6.301539-3.150769-3.150769-3.150769-3.150769-7.876923 1.575385-11.027692 137.058462-118.153846 296.172308-307.2 296.172307-450.56 0-220.553846-170.141538-289.870769-272.541538-311.926154-31.507692-6.301538-64.590769-11.027692-97.673846-11.027693h-15.753846c-4.726154 0-7.876923-3.150769-7.876923-7.876923s3.150769-7.876923 7.876923-7.876923h15.753846c34.658462 1.575385 69.316923 6.301538 100.824615 12.603077 105.550769 22.055385 285.144615 94.523077 285.144616 326.104616 0 148.086154-162.264615 341.858462-302.473847 463.163077-1.575385 1.575385-3.150769 1.575385-4.726153 1.575384z" fill="#116FFF" p-id="10426"></path><path d="M529.329231 806.596923h-3.150769c-4.726154-1.575385-6.301538-6.301538-4.726154-9.452308 1.575385-3.150769 110.276923-304.049231 110.276923-461.587692 0-152.812308-42.535385-275.692308-105.550769-307.2-3.150769-1.575385-4.726154-4.726154-4.726154-7.876923 0-6.301538 6.301538-9.452308 11.027692-6.301538 67.741538 34.658462 115.003077 163.84 115.003077 321.378461 0 160.689231-105.550769 455.286154-110.276923 467.889231-1.575385 1.575385-4.726154 3.150769-7.876923 3.150769z" fill="#116FFF" p-id="10427"></path><path d="M576.590769 806.596923c-1.575385 0-3.150769 0-4.726154-1.575385-3.150769-3.150769-4.726154-7.876923-1.575384-11.027692 1.575385-3.150769 218.978462-307.2 218.978461-444.258461C789.267692 204.8 724.676923 83.495385 625.427692 37.809231c-4.726154-1.575385-6.301538-6.301538-4.726154-11.027693 1.575385-4.726154 6.301538-6.301538 11.027693-4.726153 105.550769 47.261538 173.292308 174.867692 173.292307 326.104615 0 143.36-212.676923 441.107692-222.12923 453.710769-1.575385 4.726154-3.150769 4.726154-6.301539 4.726154zM482.067692 1019.273846c-12.603077 0-23.630769-11.027692-23.630769-23.630769 0-4.726154 3.150769-7.876923 7.876923-7.876923s7.876923 3.150769 7.876923 7.876923 3.150769 7.876923 7.876923 7.876923 7.876923 3.150769 7.876923 7.876923-3.150769 7.876923-7.876923 7.876923zM545.083077 1019.273846c-4.726154 0-7.876923-3.150769-7.876923-7.876923s3.150769-7.876923 7.876923-7.876923 7.876923-3.150769 7.876923-7.876923 3.150769-7.876923 7.876923-7.876923 7.876923 3.150769 7.876923 7.876923c0 14.178462-11.027692 23.630769-23.630769 23.630769z" fill="#116FFF" p-id="10428"></path><path d="M545.083077 1019.273846h-63.015385c-4.726154 0-7.876923-3.150769-7.876923-7.876923s3.150769-7.876923 7.876923-7.876923h63.015385c4.726154 0 7.876923 3.150769 7.876923 7.876923s-3.150769 7.876923-7.876923 7.876923zM513.575385 940.504615c-12.603077 0-23.630769-11.027692-23.63077-23.630769 0-9.452308 7.876923-39.384615 23.63077-39.384615s23.630769 29.932308 23.630769 39.384615c0 14.178462-11.027692 23.630769-23.630769 23.630769z m0-45.686153c-3.150769 3.150769-7.876923 15.753846-7.876923 23.630769 0 4.726154 3.150769 7.876923 7.876923 7.876923s7.876923-3.150769 7.876923-7.876923c0-7.876923-4.726154-20.48-7.876923-23.630769zM466.313846 940.504615c-4.726154 0-7.876923-3.150769-7.876923-7.876923v-63.015384c0-4.726154 3.150769-7.876923 7.876923-7.876923s7.876923 3.150769 7.876923 7.876923v63.015384c0 4.726154-3.150769 7.876923-7.876923 7.876923zM560.836923 940.504615c-4.726154 0-7.876923-3.150769-7.876923-7.876923v-63.015384c0-4.726154 3.150769-7.876923 7.876923-7.876923s7.876923 3.150769 7.876923 7.876923v63.015384c0 4.726154-3.150769 7.876923-7.876923 7.876923zM497.821538 1003.52c-4.726154 0-7.876923-3.150769-7.876923-7.876923v-31.507692c0-4.726154 3.150769-7.876923 7.876923-7.876923s7.876923 3.150769 7.876924 7.876923v31.507692c0 4.726154-3.150769 7.876923-7.876924 7.876923zM529.329231 1003.52c-4.726154 0-7.876923-3.150769-7.876923-7.876923v-31.507692c0-4.726154 3.150769-7.876923 7.876923-7.876923s7.876923 3.150769 7.876923 7.876923v31.507692c0 4.726154-3.150769 7.876923-7.876923 7.876923z" fill="#116FFF" p-id="10429"></path><path d="M545.083077 987.766154h-63.015385c-4.726154 0-7.876923-3.150769-7.876923-7.876923s3.150769-7.876923 7.876923-7.876923h63.015385c4.726154 0 7.876923 3.150769 7.876923 7.876923s-3.150769 7.876923-7.876923 7.876923zM419.052308 814.473846c-1.575385 0-3.150769 0-4.726154-1.575384C274.116923 693.169231 111.852308 499.396923 111.852308 349.735385 111.852308 118.153846 289.870769 45.686154 396.996923 23.630769c31.507692-6.301538 66.166154-11.027692 100.824615-12.603077h15.753847c4.726154 0 7.876923 3.150769 7.876923 7.876923s-3.150769 7.876923-7.876923 7.876923h-15.753847c-33.083077 1.575385-66.166154 4.726154-97.673846 11.027693C297.747692 59.864615 127.606154 129.181538 127.606154 349.735385c0 143.36 159.113846 332.406154 296.172308 450.56 3.150769 3.150769 3.150769 7.876923 1.575384 11.027692-1.575385 3.150769-3.150769 3.150769-6.301538 3.150769z" fill="#116FFF" p-id="10430"></path></svg>
